G04 PROTEUS GERBER X2 FILE*
%TF.GenerationSoftware,Labcenter,Proteus,8.17-SP2-Build37159*%
%TF.CreationDate,2024-06-19T08:40:51+00:00*%
%TF.FileFunction,AssemblyDrawing,Top*%
%TF.FilePolarity,Positive*%
%TF.Part,Single*%
%TF.SameCoordinates,{cc4adc65-c152-4fc9-8d13-ce7ccd937357}*%
%FSLAX45Y45*%
%MOMM*%
G01*
%TA.AperFunction,Profile*%
%ADD13C,0.101600*%
%TA.AperFunction,Material*%
%ADD15C,0.101600*%
%ADD71C,0.711200*%
%ADD20C,0.146950*%
%ADD21C,0.177800*%
%ADD22C,0.812800*%
%ADD23C,0.179490*%
%ADD24C,0.128010*%
%ADD25C,0.117340*%
%ADD17C,0.152400*%
%ADD26C,0.558800*%
%ADD27C,0.114270*%
%TD.AperFunction*%
D13*
X-3410000Y-400000D02*
X+1620000Y-400000D01*
X+1620000Y+3760000D01*
X-3410000Y+3760000D01*
X-3410000Y-400000D01*
D15*
X-3062446Y+109054D02*
X-2388554Y+109054D01*
X-2388554Y+782946D01*
X-3062446Y+782946D01*
X-3062446Y+109054D01*
D71*
X-2535000Y+446000D02*
X-2535000Y+446000D01*
D20*
X-2860589Y+181480D02*
X-2772416Y+181480D01*
X-2772416Y+280675D01*
X-2772416Y+313740D02*
X-2860589Y+313740D01*
X-2860589Y+379870D01*
X-2831198Y+412935D01*
X-2801807Y+412935D01*
X-2772416Y+379870D01*
X-2772416Y+313740D01*
X-2772416Y+446000D02*
X-2860589Y+446000D01*
X-2860589Y+528662D01*
X-2845894Y+545195D01*
X-2831198Y+545195D01*
X-2816503Y+528662D01*
X-2816503Y+446000D01*
X-2816503Y+528662D02*
X-2801807Y+545195D01*
X-2772416Y+545195D01*
X-2831198Y+611325D02*
X-2860589Y+644390D01*
X-2772416Y+644390D01*
D15*
X-1096080Y-103080D02*
X-831920Y-103080D01*
X-831920Y+669080D01*
X-1096080Y+669080D01*
X-1096080Y-103080D01*
D71*
X-964000Y+537000D02*
X-964000Y+537000D01*
D21*
X-928440Y+159175D02*
X-910660Y+139172D01*
X-910660Y+79165D01*
X-946220Y+39160D01*
X-981780Y+39160D01*
X-1017340Y+79165D01*
X-1017340Y+139172D01*
X-999560Y+159175D01*
X-981780Y+239185D02*
X-1017340Y+279190D01*
X-910660Y+279190D01*
D15*
X+484920Y+2752920D02*
X+876080Y+2752920D01*
X+876080Y+3525080D01*
X+484920Y+3525080D01*
X+484920Y+2752920D01*
D22*
X+617000Y+3393000D02*
X+617000Y+3393000D01*
D23*
X+626652Y+2891097D02*
X+716399Y+2891097D01*
X+734348Y+2911289D01*
X+734348Y+2992061D01*
X+716399Y+3012254D01*
X+626652Y+3012254D01*
X+662551Y+3093025D02*
X+626652Y+3133411D01*
X+734348Y+3133411D01*
D15*
X+512480Y-64900D02*
X+705520Y-64900D01*
X+705520Y+1128900D01*
X+512480Y+1128900D01*
X+512480Y-64900D01*
D71*
X+609000Y+1040000D02*
X+609000Y+1040000D01*
D24*
X+647404Y+354557D02*
X+570595Y+354557D01*
X+570595Y+412163D01*
X+596198Y+440966D01*
X+621801Y+440966D01*
X+647404Y+412163D01*
X+647404Y+354557D01*
X+596198Y+498573D02*
X+570595Y+527376D01*
X+647404Y+527376D01*
D15*
X-1444900Y+2336100D02*
X-1267100Y+2336100D01*
X-1267100Y+3529900D01*
X-1444900Y+3529900D01*
X-1444900Y+2336100D01*
D71*
X-1356000Y+3441000D02*
X-1356000Y+3441000D01*
D25*
X-1320796Y+2765158D02*
X-1391204Y+2765158D01*
X-1391204Y+2831165D01*
X-1379469Y+2844367D01*
X-1367735Y+2844367D01*
X-1356000Y+2831165D01*
X-1356000Y+2765158D01*
X-1356000Y+2831165D02*
X-1344265Y+2844367D01*
X-1320796Y+2844367D01*
X-1367735Y+2897173D02*
X-1391204Y+2923576D01*
X-1320796Y+2923576D01*
D17*
X-3112320Y+3566400D02*
X-3112320Y+3314940D01*
X-2563680Y+3314940D01*
X-2563680Y+3566400D01*
X-3112320Y+3566400D01*
X-3112320Y+3314940D01*
X-2563680Y+3314940D01*
X-2563680Y+3566400D01*
X-3112320Y+3566400D01*
D26*
X-2938000Y+3441000D02*
X-2938000Y+3441000D01*
D27*
X-2835906Y+3474952D02*
X-2835906Y+3406387D01*
X-2758772Y+3406387D01*
X-2707349Y+3452097D02*
X-2681637Y+3474952D01*
X-2681637Y+3406387D01*
D17*
X-2794600Y+2214320D02*
X-3046060Y+2214320D01*
X-3046060Y+1665680D01*
X-2794600Y+1665680D01*
X-2794600Y+2214320D01*
X-3046060Y+2214320D01*
X-3046060Y+1665680D01*
X-2794600Y+1665680D01*
X-2794600Y+2214320D01*
D26*
X-2920000Y+2040000D02*
X-2920000Y+2040000D01*
D27*
X-2954612Y+1732214D02*
X-2920330Y+1732214D01*
X-2886047Y+1770781D01*
X-2920330Y+1809348D01*
X-2954612Y+1809348D01*
X-2931757Y+1860771D02*
X-2954612Y+1886483D01*
X-2886047Y+1886483D01*
M02*
